<?xml version="1.0" encoding="utf-8"?>
<svg width="512" height="512" viewBox="0 0 512 512" xmlns="http://www.w3.org/2000/svg">
  <!-- WhatsApp bubble (unchanged) -->
  <path style="fill:#EDEDED;" d="M0,512l35.31-128C12.359,344.276,0,300.138,0,254.234C0,114.759,114.759,0,255.117,0S512,114.759,512,254.234S395.476,512,255.117,512c-44.138,0-86.51-14.124-124.469-35.31L0,512z"/>
  <path style="fill:#55CD6C;" d="M137.71,430.786l7.945,4.414c32.662,20.303,70.621,32.662,110.345,32.662c115.641,0,211.862-96.221,211.862-213.628S371.641,44.138,255.117,44.138S44.138,137.71,44.138,254.234c0,40.607,11.476,80.331,32.662,113.876l5.297,7.945l-20.303,74.152L137.71,430.786z"/>
  <!-- Hook (original paths, recolored white, centered inside the bubble) -->
  <g transform="translate(83, 61) scale(5.5) rotate(-38, 31.26, 35.01) translate(62.52, 0) scale(-1, 1)">
    <g id="color">
      <path fill="#FEFEFE" d="M28.3493,64.0547a14.1852,14.1852,0,0,1-9.08-25.083,1,1,0,0,1,1.6318.8994c-.7138,5.3779,5.1221,9.1143,5.1817,9.1514a1.0006,1.0006,0,0,1-.5313,1.8476H20.9782a7.438,7.438,0,0,0,14.8086-1V23a8.91,8.91,0,1,1,6.747.2344V49.87A14.2007,14.2007,0,0,1,28.3493,64.0547ZM39.445,12.7188a2.1643,2.1643,0,1,0,2.164,2.164A2.1664,2.1664,0,0,0,39.445,12.7188Z"/>
    </g>
    <g id="line">
      <path fill="none" stroke="#FEFEFE" stroke-linecap="round" stroke-linejoin="round" stroke-width="2" d="M25.5511,49.87s-6.4505-4.0285-5.64-10.1295L19.91,39.74A13.1848,13.1848,0,1,0,41.5335,49.87V22.5059a7.9115,7.9115,0,1,0-4.7465-.18V49.87a8.4382,8.4382,0,1,1-16.8763,0h.8339M41.2972,17.4489a3.1645,3.1645,0,1,1,1.3123-2.566"/>
    </g>
  </g>
</svg>
